<mxfile host="drawio-plugin" modified="2022-07-26T12:30:43.867Z" agent="5.0 (Macintosh; Intel Mac OS X 10_15_7) AppleWebKit/537.36 (KHTML, like Gecko) Chrome/97.0.4692.45 Safari/537.36" etag="p8GzRbimLxe85X012A8a" version="15.5.4" type="embed" pages="4"><diagram id="23iRSUPoRavnBvh4doch" name="Affordability"><mxGraphModel dx="1153" dy="613" grid="1" gridSize="10" guides="1" tooltips="1" connect="1" arrows="1" fold="1" page="1" pageScale="1" pageWidth="827" pageHeight="1169" math="0" shadow="0"><root><mxCell id="0"/><mxCell id="1" parent="0"/><mxCell id="15" style="edgeStyle=none;rounded=0;orthogonalLoop=1;jettySize=auto;html=1;" parent="1" source="2" target="6" edge="1"><mxGeometry relative="1" as="geometry"/></mxCell><mxCell id="2" value="Over-consume&lt;br&gt;10%" style="ellipse;whiteSpace=wrap;html=1;fillColor=#f8cecc;strokeColor=#b85450;" parent="1" vertex="1"><mxGeometry x="140" y="190" width="80" height="50" as="geometry"/></mxCell><mxCell id="16" style="edgeStyle=none;rounded=0;orthogonalLoop=1;jettySize=auto;html=1;" parent="1" source="3" target="6" edge="1"><mxGeometry relative="1" as="geometry"/></mxCell><mxCell id="3" value="Over-consume&lt;br&gt;20%" style="ellipse;whiteSpace=wrap;html=1;fillColor=#f8cecc;strokeColor=#b85450;" parent="1" vertex="1"><mxGeometry x="240" y="190" width="80" height="50" as="geometry"/></mxCell><mxCell id="17" style="edgeStyle=none;rounded=0;orthogonalLoop=1;jettySize=auto;html=1;" parent="1" source="4" target="6" edge="1"><mxGeometry relative="1" as="geometry"/></mxCell><mxCell id="4" value="Over-consume&lt;br&gt;30%" style="ellipse;whiteSpace=wrap;html=1;fillColor=#f8cecc;strokeColor=#b85450;" parent="1" vertex="1"><mxGeometry x="334" y="190" width="80" height="50" as="geometry"/></mxCell><mxCell id="11" style="rounded=0;orthogonalLoop=1;jettySize=auto;html=1;" parent="1" source="6" target="7" edge="1"><mxGeometry relative="1" as="geometry"/></mxCell><mxCell id="12" style="edgeStyle=none;rounded=0;orthogonalLoop=1;jettySize=auto;html=1;" parent="1" source="6" target="8" edge="1"><mxGeometry relative="1" as="geometry"/></mxCell><mxCell id="13" style="edgeStyle=none;rounded=0;orthogonalLoop=1;jettySize=auto;html=1;" parent="1" source="6" target="9" edge="1"><mxGeometry relative="1" as="geometry"/></mxCell><mxCell id="14" style="edgeStyle=none;rounded=0;orthogonalLoop=1;jettySize=auto;html=1;" parent="1" source="6" target="10" edge="1"><mxGeometry relative="1" as="geometry"/></mxCell><mxCell id="6" value="Good &lt;br&gt;comfort" style="ellipse;whiteSpace=wrap;html=1;fillColor=#f5f5f5;strokeColor=#666666;fontColor=#333333;" parent="1" vertex="1"><mxGeometry x="240" y="270" width="80" height="50" as="geometry"/></mxCell><mxCell id="7" value="Buy energy&lt;br&gt;10%" style="ellipse;whiteSpace=wrap;html=1;fillColor=#f8cecc;strokeColor=#b85450;" parent="1" vertex="1"><mxGeometry x="100" y="350" width="80" height="50" as="geometry"/></mxCell><mxCell id="8" value="Buy energy&lt;br&gt;30%" style="ellipse;whiteSpace=wrap;html=1;fillColor=#f8cecc;strokeColor=#b85450;" parent="1" vertex="1"><mxGeometry x="200" y="350" width="80" height="50" as="geometry"/></mxCell><mxCell id="9" value="Buy energy&lt;br&gt;50%" style="ellipse;whiteSpace=wrap;html=1;fillColor=#f8cecc;strokeColor=#b85450;" parent="1" vertex="1"><mxGeometry x="300" y="350" width="80" height="50" as="geometry"/></mxCell><mxCell id="24" style="edgeStyle=none;rounded=0;orthogonalLoop=1;jettySize=auto;html=1;" parent="1" source="10" target="23" edge="1"><mxGeometry relative="1" as="geometry"/></mxCell><mxCell id="10" value="Buy energy&lt;br&gt;75%" style="ellipse;whiteSpace=wrap;html=1;fillColor=#f8cecc;strokeColor=#b85450;" parent="1" vertex="1"><mxGeometry x="400" y="350" width="80" height="50" as="geometry"/></mxCell><mxCell id="19" style="edgeStyle=none;rounded=0;orthogonalLoop=1;jettySize=auto;html=1;" parent="1" source="18" target="7" edge="1"><mxGeometry relative="1" as="geometry"/></mxCell><mxCell id="18" value="Average comfort" style="ellipse;whiteSpace=wrap;html=1;fillColor=#f5f5f5;strokeColor=#666666;fontColor=#333333;" parent="1" vertex="1"><mxGeometry x="100" y="270" width="80" height="50" as="geometry"/></mxCell><mxCell id="22" style="edgeStyle=none;rounded=0;orthogonalLoop=1;jettySize=auto;html=1;" parent="1" source="20" target="21" edge="1"><mxGeometry relative="1" as="geometry"/></mxCell><mxCell id="26" style="edgeStyle=none;rounded=0;orthogonalLoop=1;jettySize=auto;html=1;" parent="1" source="20" target="25" edge="1"><mxGeometry relative="1" as="geometry"/></mxCell><mxCell id="20" value="Bad &lt;br&gt;comfort" style="ellipse;whiteSpace=wrap;html=1;fillColor=#f5f5f5;strokeColor=#666666;fontColor=#333333;" parent="1" vertex="1"><mxGeometry x="140" y="430" width="80" height="50" as="geometry"/></mxCell><mxCell id="27" style="edgeStyle=none;rounded=0;orthogonalLoop=1;jettySize=auto;html=1;" parent="1" source="21" target="7" edge="1"><mxGeometry relative="1" as="geometry"/></mxCell><mxCell id="28" style="edgeStyle=none;rounded=0;orthogonalLoop=1;jettySize=auto;html=1;" parent="1" source="21" target="8" edge="1"><mxGeometry relative="1" as="geometry"/></mxCell><mxCell id="29" style="edgeStyle=none;rounded=0;orthogonalLoop=1;jettySize=auto;html=1;" parent="1" source="21" target="9" edge="1"><mxGeometry relative="1" as="geometry"/></mxCell><mxCell id="30" style="edgeStyle=none;rounded=0;orthogonalLoop=1;jettySize=auto;html=1;" parent="1" source="21" target="10" edge="1"><mxGeometry relative="1" as="geometry"/></mxCell><mxCell id="21" value="Positive &lt;br&gt;payoff" style="ellipse;whiteSpace=wrap;html=1;fillColor=#dae8fc;strokeColor=#6c8ebf;" parent="1" vertex="1"><mxGeometry x="240" y="430" width="80" height="50" as="geometry"/></mxCell><mxCell id="23" value="Bias" style="ellipse;whiteSpace=wrap;html=1;fillColor=#dae8fc;strokeColor=#6c8ebf;" parent="1" vertex="1"><mxGeometry x="400" y="430" width="80" height="50" as="geometry"/></mxCell><mxCell id="25" value="Not buy energy" style="ellipse;whiteSpace=wrap;html=1;fillColor=#dae8fc;strokeColor=#6c8ebf;" parent="1" vertex="1"><mxGeometry x="40" y="430" width="80" height="50" as="geometry"/></mxCell><mxCell id="35" value="" style="group" parent="1" vertex="1" connectable="0"><mxGeometry x="440" y="190" width="70" height="130" as="geometry"/></mxCell><mxCell id="31" value="Legend" style="rounded=0;whiteSpace=wrap;html=1;fontSize=14;horizontal=1;verticalAlign=top;fillColor=default;" parent="35" vertex="1"><mxGeometry width="70" height="130" as="geometry"/></mxCell><mxCell id="32" value="Cons" style="ellipse;whiteSpace=wrap;html=1;fillColor=#f8cecc;strokeColor=#b85450;" parent="35" vertex="1"><mxGeometry x="10" y="30" width="40" height="20" as="geometry"/></mxCell><mxCell id="33" value="Pros" style="ellipse;whiteSpace=wrap;html=1;fillColor=#dae8fc;strokeColor=#6c8ebf;" parent="35" vertex="1"><mxGeometry x="10" y="60" width="40" height="20" as="geometry"/></mxCell><mxCell id="34" value="Neutral" style="ellipse;whiteSpace=wrap;html=1;fillColor=#f5f5f5;strokeColor=#666666;fontColor=#333333;" parent="35" vertex="1"><mxGeometry x="10" y="95" width="40" height="20" as="geometry"/></mxCell></root></mxGraphModel></diagram><diagram id="C2NJRWROEe5Hf0s9VihM" name="Env"><mxGraphModel dx="1153" dy="613" grid="1" gridSize="10" guides="1" tooltips="1" connect="1" arrows="1" fold="1" page="1" pageScale="1" pageWidth="850" pageHeight="1100" math="0" shadow="0"><root><mxCell id="TGp-a6MKsTboU-OdOQBq-0"/><mxCell id="TGp-a6MKsTboU-OdOQBq-1" parent="TGp-a6MKsTboU-OdOQBq-0"/><mxCell id="EAzSjM2xG9Pz6ouFTZ9O-0" style="edgeStyle=none;rounded=0;orthogonalLoop=1;jettySize=auto;html=1;" parent="TGp-a6MKsTboU-OdOQBq-1" source="wk4DNd20aMxQsFzoZjvu-0" target="wk4DNd20aMxQsFzoZjvu-3" edge="1"><mxGeometry relative="1" as="geometry"/></mxCell><mxCell id="wk4DNd20aMxQsFzoZjvu-0" value="Bad&lt;br&gt;comfort" style="ellipse;whiteSpace=wrap;html=1;fillColor=#f8cecc;strokeColor=#b85450;" parent="TGp-a6MKsTboU-OdOQBq-1" vertex="1"><mxGeometry x="210" y="200" width="80" height="50" as="geometry"/></mxCell><mxCell id="EAzSjM2xG9Pz6ouFTZ9O-1" style="edgeStyle=none;rounded=0;orthogonalLoop=1;jettySize=auto;html=1;" parent="TGp-a6MKsTboU-OdOQBq-1" source="wk4DNd20aMxQsFzoZjvu-1" target="wk4DNd20aMxQsFzoZjvu-0" edge="1"><mxGeometry relative="1" as="geometry"/></mxCell><mxCell id="wk4DNd20aMxQsFzoZjvu-1" value="Consume storage" style="ellipse;whiteSpace=wrap;html=1;fillColor=#f5f5f5;strokeColor=#666666;fontColor=#333333;" parent="TGp-a6MKsTboU-OdOQBq-1" vertex="1"><mxGeometry x="320" y="200" width="80" height="50" as="geometry"/></mxCell><mxCell id="EAzSjM2xG9Pz6ouFTZ9O-2" style="edgeStyle=none;rounded=0;orthogonalLoop=1;jettySize=auto;html=1;" parent="TGp-a6MKsTboU-OdOQBq-1" source="wk4DNd20aMxQsFzoZjvu-2" target="wk4DNd20aMxQsFzoZjvu-1" edge="1"><mxGeometry relative="1" as="geometry"/></mxCell><mxCell id="wk4DNd20aMxQsFzoZjvu-2" value="Over-consume" style="ellipse;whiteSpace=wrap;html=1;fillColor=#f5f5f5;strokeColor=#666666;fontColor=#333333;" parent="TGp-a6MKsTboU-OdOQBq-1" vertex="1"><mxGeometry x="430" y="200" width="80" height="50" as="geometry"/></mxCell><mxCell id="wk4DNd20aMxQsFzoZjvu-3" value="Bias 1" style="ellipse;whiteSpace=wrap;html=1;fillColor=#dae8fc;strokeColor=#6c8ebf;" parent="TGp-a6MKsTboU-OdOQBq-1" vertex="1"><mxGeometry x="100" y="240" width="80" height="50" as="geometry"/></mxCell><mxCell id="wk4DNd20aMxQsFzoZjvu-4" value="Bias 2" style="ellipse;whiteSpace=wrap;html=1;fillColor=#f8cecc;strokeColor=#b85450;" parent="TGp-a6MKsTboU-OdOQBq-1" vertex="1"><mxGeometry x="540" y="340" width="80" height="50" as="geometry"/></mxCell><mxCell id="wk4DNd20aMxQsFzoZjvu-5" value="Bias 3" style="ellipse;whiteSpace=wrap;html=1;fillColor=#dae8fc;strokeColor=#6c8ebf;" parent="TGp-a6MKsTboU-OdOQBq-1" vertex="1"><mxGeometry x="100" y="460" width="80" height="50" as="geometry"/></mxCell><mxCell id="EAzSjM2xG9Pz6ouFTZ9O-9" style="edgeStyle=none;rounded=0;orthogonalLoop=1;jettySize=auto;html=1;" parent="TGp-a6MKsTboU-OdOQBq-1" source="wk4DNd20aMxQsFzoZjvu-7" target="wk4DNd20aMxQsFzoZjvu-11" edge="1"><mxGeometry relative="1" as="geometry"/></mxCell><mxCell id="EAzSjM2xG9Pz6ouFTZ9O-10" style="edgeStyle=none;rounded=0;orthogonalLoop=1;jettySize=auto;html=1;" parent="TGp-a6MKsTboU-OdOQBq-1" source="wk4DNd20aMxQsFzoZjvu-7" target="wk4DNd20aMxQsFzoZjvu-13" edge="1"><mxGeometry relative="1" as="geometry"/></mxCell><mxCell id="EAzSjM2xG9Pz6ouFTZ9O-11" style="edgeStyle=none;rounded=0;orthogonalLoop=1;jettySize=auto;html=1;" parent="TGp-a6MKsTboU-OdOQBq-1" source="wk4DNd20aMxQsFzoZjvu-7" target="wk4DNd20aMxQsFzoZjvu-12" edge="1"><mxGeometry relative="1" as="geometry"/></mxCell><mxCell id="EAzSjM2xG9Pz6ouFTZ9O-12" style="edgeStyle=none;rounded=0;orthogonalLoop=1;jettySize=auto;html=1;" parent="TGp-a6MKsTboU-OdOQBq-1" source="wk4DNd20aMxQsFzoZjvu-7" target="wk4DNd20aMxQsFzoZjvu-14" edge="1"><mxGeometry relative="1" as="geometry"/></mxCell><mxCell id="EAzSjM2xG9Pz6ouFTZ9O-13" style="edgeStyle=none;rounded=0;orthogonalLoop=1;jettySize=auto;html=1;" parent="TGp-a6MKsTboU-OdOQBq-1" source="wk4DNd20aMxQsFzoZjvu-7" target="wk4DNd20aMxQsFzoZjvu-1" edge="1"><mxGeometry relative="1" as="geometry"/></mxCell><mxCell id="wk4DNd20aMxQsFzoZjvu-7" value="Buy energy 15%" style="ellipse;whiteSpace=wrap;html=1;fillColor=#f8cecc;strokeColor=#b85450;" parent="TGp-a6MKsTboU-OdOQBq-1" vertex="1"><mxGeometry x="320" y="290" width="80" height="50" as="geometry"/></mxCell><mxCell id="wk4DNd20aMxQsFzoZjvu-8" value="Buy energy 25%" style="ellipse;whiteSpace=wrap;html=1;fillColor=#f8cecc;strokeColor=#b85450;" parent="TGp-a6MKsTboU-OdOQBq-1" vertex="1"><mxGeometry x="320" y="380" width="80" height="50" as="geometry"/></mxCell><mxCell id="wk4DNd20aMxQsFzoZjvu-9" value="Buy energy 40%" style="ellipse;whiteSpace=wrap;html=1;fillColor=#f8cecc;strokeColor=#b85450;" parent="TGp-a6MKsTboU-OdOQBq-1" vertex="1"><mxGeometry x="320" y="460" width="80" height="50" as="geometry"/></mxCell><mxCell id="EAzSjM2xG9Pz6ouFTZ9O-14" style="edgeStyle=none;rounded=0;orthogonalLoop=1;jettySize=auto;html=1;" parent="TGp-a6MKsTboU-OdOQBq-1" source="wk4DNd20aMxQsFzoZjvu-10" target="wk4DNd20aMxQsFzoZjvu-5" edge="1"><mxGeometry relative="1" as="geometry"/></mxCell><mxCell id="wk4DNd20aMxQsFzoZjvu-10" value="Buy energy 55%" style="ellipse;whiteSpace=wrap;html=1;fillColor=#f8cecc;strokeColor=#b85450;" parent="TGp-a6MKsTboU-OdOQBq-1" vertex="1"><mxGeometry x="210" y="460" width="80" height="50" as="geometry"/></mxCell><mxCell id="EAzSjM2xG9Pz6ouFTZ9O-4" style="edgeStyle=none;rounded=0;orthogonalLoop=1;jettySize=auto;html=1;" parent="TGp-a6MKsTboU-OdOQBq-1" source="wk4DNd20aMxQsFzoZjvu-11" target="wk4DNd20aMxQsFzoZjvu-15" edge="1"><mxGeometry relative="1" as="geometry"/></mxCell><mxCell id="wk4DNd20aMxQsFzoZjvu-11" value="Storage filled 50%" style="ellipse;whiteSpace=wrap;html=1;fillColor=#dae8fc;strokeColor=#6c8ebf;" parent="TGp-a6MKsTboU-OdOQBq-1" vertex="1"><mxGeometry x="210" y="290" width="80" height="50" as="geometry"/></mxCell><mxCell id="EAzSjM2xG9Pz6ouFTZ9O-6" style="edgeStyle=none;rounded=0;orthogonalLoop=1;jettySize=auto;html=1;" parent="TGp-a6MKsTboU-OdOQBq-1" source="wk4DNd20aMxQsFzoZjvu-12" target="wk4DNd20aMxQsFzoZjvu-4" edge="1"><mxGeometry relative="1" as="geometry"/></mxCell><mxCell id="wk4DNd20aMxQsFzoZjvu-12" value="Storage filled 80%" style="ellipse;whiteSpace=wrap;html=1;fillColor=#dae8fc;strokeColor=#6c8ebf;" parent="TGp-a6MKsTboU-OdOQBq-1" vertex="1"><mxGeometry x="430" y="290" width="80" height="50" as="geometry"/></mxCell><mxCell id="EAzSjM2xG9Pz6ouFTZ9O-3" style="edgeStyle=none;rounded=0;orthogonalLoop=1;jettySize=auto;html=1;" parent="TGp-a6MKsTboU-OdOQBq-1" source="wk4DNd20aMxQsFzoZjvu-13" target="wk4DNd20aMxQsFzoZjvu-15" edge="1"><mxGeometry relative="1" as="geometry"/></mxCell><mxCell id="wk4DNd20aMxQsFzoZjvu-13" value="Stored&lt;br&gt;25%" style="ellipse;whiteSpace=wrap;html=1;fillColor=#dae8fc;strokeColor=#6c8ebf;" parent="TGp-a6MKsTboU-OdOQBq-1" vertex="1"><mxGeometry x="210" y="380" width="80" height="50" as="geometry"/></mxCell><mxCell id="EAzSjM2xG9Pz6ouFTZ9O-7" style="edgeStyle=none;rounded=0;orthogonalLoop=1;jettySize=auto;html=1;" parent="TGp-a6MKsTboU-OdOQBq-1" source="wk4DNd20aMxQsFzoZjvu-14" target="wk4DNd20aMxQsFzoZjvu-4" edge="1"><mxGeometry relative="1" as="geometry"/></mxCell><mxCell id="wk4DNd20aMxQsFzoZjvu-14" value="Stored&lt;br&gt;50%" style="ellipse;whiteSpace=wrap;html=1;fillColor=#dae8fc;strokeColor=#6c8ebf;" parent="TGp-a6MKsTboU-OdOQBq-1" vertex="1"><mxGeometry x="430" y="380" width="80" height="50" as="geometry"/></mxCell><mxCell id="EAzSjM2xG9Pz6ouFTZ9O-5" style="edgeStyle=none;rounded=0;orthogonalLoop=1;jettySize=auto;html=1;" parent="TGp-a6MKsTboU-OdOQBq-1" source="wk4DNd20aMxQsFzoZjvu-15" target="wk4DNd20aMxQsFzoZjvu-3" edge="1"><mxGeometry relative="1" as="geometry"/></mxCell><mxCell id="wk4DNd20aMxQsFzoZjvu-15" value="High global energy" style="ellipse;whiteSpace=wrap;html=1;fillColor=#f8cecc;strokeColor=#b85450;" parent="TGp-a6MKsTboU-OdOQBq-1" vertex="1"><mxGeometry x="100" y="340" width="80" height="50" as="geometry"/></mxCell><mxCell id="EAzSjM2xG9Pz6ouFTZ9O-8" style="edgeStyle=none;rounded=0;orthogonalLoop=1;jettySize=auto;html=1;" parent="TGp-a6MKsTboU-OdOQBq-1" source="wk4DNd20aMxQsFzoZjvu-16" target="wk4DNd20aMxQsFzoZjvu-4" edge="1"><mxGeometry relative="1" as="geometry"/></mxCell><mxCell id="wk4DNd20aMxQsFzoZjvu-16" value="Low global energy" style="ellipse;whiteSpace=wrap;html=1;fillColor=#f5f5f5;strokeColor=#666666;fontColor=#333333;" parent="TGp-a6MKsTboU-OdOQBq-1" vertex="1"><mxGeometry x="540" y="460" width="80" height="50" as="geometry"/></mxCell><mxCell id="DFo6RXOUmpBWvixuU_Z5-0" value="" style="group" parent="TGp-a6MKsTboU-OdOQBq-1" vertex="1" connectable="0"><mxGeometry x="550" y="180" width="70" height="130" as="geometry"/></mxCell><mxCell id="DFo6RXOUmpBWvixuU_Z5-1" value="Legend" style="rounded=0;whiteSpace=wrap;html=1;fontSize=14;horizontal=1;verticalAlign=top;fillColor=default;" parent="DFo6RXOUmpBWvixuU_Z5-0" vertex="1"><mxGeometry width="70" height="130" as="geometry"/></mxCell><mxCell id="DFo6RXOUmpBWvixuU_Z5-2" value="Cons" style="ellipse;whiteSpace=wrap;html=1;fillColor=#f8cecc;strokeColor=#b85450;" parent="DFo6RXOUmpBWvixuU_Z5-0" vertex="1"><mxGeometry x="10" y="30" width="40" height="20" as="geometry"/></mxCell><mxCell id="DFo6RXOUmpBWvixuU_Z5-3" value="Pros" style="ellipse;whiteSpace=wrap;html=1;fillColor=#dae8fc;strokeColor=#6c8ebf;" parent="DFo6RXOUmpBWvixuU_Z5-0" vertex="1"><mxGeometry x="10" y="60" width="40" height="20" as="geometry"/></mxCell><mxCell id="DFo6RXOUmpBWvixuU_Z5-4" value="Neutral" style="ellipse;whiteSpace=wrap;html=1;fillColor=#f5f5f5;strokeColor=#666666;fontColor=#333333;" parent="DFo6RXOUmpBWvixuU_Z5-0" vertex="1"><mxGeometry x="10" y="95" width="40" height="20" as="geometry"/></mxCell></root></mxGraphModel></diagram><diagram id="YSAj1S2qieeaUr0XhxGW" name="Inclusiveness"><mxGraphModel dx="1153" dy="613" grid="1" gridSize="10" guides="1" tooltips="1" connect="1" arrows="1" fold="1" page="1" pageScale="1" pageWidth="1169" pageHeight="827" math="0" shadow="0"><root><mxCell id="0"/><mxCell id="1" parent="0"/><mxCell id="TMDlMX8yzhhtKlVDPS-Z-1" value="Comfort above average 5%" style="ellipse;whiteSpace=wrap;html=1;fillColor=#f8cecc;strokeColor=#b85450;" parent="1" vertex="1"><mxGeometry x="360" y="320" width="90" height="50" as="geometry"/></mxCell><mxCell id="TMDlMX8yzhhtKlVDPS-Z-11" style="edgeStyle=orthogonalEdgeStyle;rounded=0;orthogonalLoop=1;jettySize=auto;html=1;" parent="1" source="TMDlMX8yzhhtKlVDPS-Z-2" target="TMDlMX8yzhhtKlVDPS-Z-4" edge="1"><mxGeometry relative="1" as="geometry"/></mxCell><mxCell id="TMDlMX8yzhhtKlVDPS-Z-2" value="Comfort above average 10%" style="ellipse;whiteSpace=wrap;html=1;fillColor=#f8cecc;strokeColor=#b85450;" parent="1" vertex="1"><mxGeometry x="240" y="400" width="90" height="50" as="geometry"/></mxCell><mxCell id="TMDlMX8yzhhtKlVDPS-Z-12" style="rounded=0;orthogonalLoop=1;jettySize=auto;html=1;" parent="1" source="TMDlMX8yzhhtKlVDPS-Z-3" target="TMDlMX8yzhhtKlVDPS-Z-4" edge="1"><mxGeometry relative="1" as="geometry"/></mxCell><mxCell id="TMDlMX8yzhhtKlVDPS-Z-3" value="Comfort above average 15%" style="ellipse;whiteSpace=wrap;html=1;fillColor=#f8cecc;strokeColor=#b85450;" parent="1" vertex="1"><mxGeometry x="360" y="400" width="90" height="50" as="geometry"/></mxCell><mxCell id="TMDlMX8yzhhtKlVDPS-Z-5" style="edgeStyle=orthogonalEdgeStyle;rounded=0;orthogonalLoop=1;jettySize=auto;html=1;" parent="1" source="TMDlMX8yzhhtKlVDPS-Z-4" target="TMDlMX8yzhhtKlVDPS-Z-1" edge="1"><mxGeometry relative="1" as="geometry"/></mxCell><mxCell id="TMDlMX8yzhhtKlVDPS-Z-4" value="Agent is a School" style="ellipse;whiteSpace=wrap;html=1;fillColor=#f5f5f5;strokeColor=#666666;fontColor=#333333;" parent="1" vertex="1"><mxGeometry x="240" y="320" width="90" height="50" as="geometry"/></mxCell><mxCell id="TMDlMX8yzhhtKlVDPS-Z-6" value="Gave energy 10%" style="ellipse;whiteSpace=wrap;html=1;fillColor=#dae8fc;strokeColor=#6c8ebf;" parent="1" vertex="1"><mxGeometry x="240" y="240" width="90" height="50" as="geometry"/></mxCell><mxCell id="TMDlMX8yzhhtKlVDPS-Z-16" style="edgeStyle=none;rounded=0;orthogonalLoop=1;jettySize=auto;html=1;" parent="1" source="TMDlMX8yzhhtKlVDPS-Z-7" target="TMDlMX8yzhhtKlVDPS-Z-1" edge="1"><mxGeometry relative="1" as="geometry"/></mxCell><mxCell id="TMDlMX8yzhhtKlVDPS-Z-7" value="Gave energy 20%" style="ellipse;whiteSpace=wrap;html=1;fillColor=#dae8fc;strokeColor=#6c8ebf;" parent="1" vertex="1"><mxGeometry x="360" y="240" width="90" height="50" as="geometry"/></mxCell><mxCell id="TMDlMX8yzhhtKlVDPS-Z-17" style="edgeStyle=none;rounded=0;orthogonalLoop=1;jettySize=auto;html=1;" parent="1" source="TMDlMX8yzhhtKlVDPS-Z-8" target="TMDlMX8yzhhtKlVDPS-Z-1" edge="1"><mxGeometry relative="1" as="geometry"/></mxCell><mxCell id="TMDlMX8yzhhtKlVDPS-Z-8" value="Gave energy 30%" style="ellipse;whiteSpace=wrap;html=1;fillColor=#dae8fc;strokeColor=#6c8ebf;" parent="1" vertex="1"><mxGeometry x="480" y="240" width="90" height="50" as="geometry"/></mxCell><mxCell id="TMDlMX8yzhhtKlVDPS-Z-13" style="edgeStyle=none;rounded=0;orthogonalLoop=1;jettySize=auto;html=1;" parent="1" source="TMDlMX8yzhhtKlVDPS-Z-9" target="TMDlMX8yzhhtKlVDPS-Z-6" edge="1"><mxGeometry relative="1" as="geometry"/></mxCell><mxCell id="TMDlMX8yzhhtKlVDPS-Z-14" style="edgeStyle=none;rounded=0;orthogonalLoop=1;jettySize=auto;html=1;" parent="1" source="TMDlMX8yzhhtKlVDPS-Z-9" target="TMDlMX8yzhhtKlVDPS-Z-7" edge="1"><mxGeometry relative="1" as="geometry"/></mxCell><mxCell id="TMDlMX8yzhhtKlVDPS-Z-15" style="edgeStyle=none;rounded=0;orthogonalLoop=1;jettySize=auto;html=1;" parent="1" source="TMDlMX8yzhhtKlVDPS-Z-9" target="TMDlMX8yzhhtKlVDPS-Z-8" edge="1"><mxGeometry relative="1" as="geometry"/></mxCell><mxCell id="TMDlMX8yzhhtKlVDPS-Z-9" value="Comfort below average 5%" style="ellipse;whiteSpace=wrap;html=1;fillColor=#f5f5f5;strokeColor=#666666;fontColor=#333333;" parent="1" vertex="1"><mxGeometry x="360" y="150" width="90" height="50" as="geometry"/></mxCell><mxCell id="TMDlMX8yzhhtKlVDPS-Z-10" value="Comfort below average 10%" style="ellipse;whiteSpace=wrap;html=1;fillColor=#f8cecc;strokeColor=#b85450;" parent="1" vertex="1"><mxGeometry x="480" y="150" width="90" height="50" as="geometry"/></mxCell><mxCell id="31NwBbD8V8PtCts3J6Gv-1" value="" style="group" parent="1" vertex="1" connectable="0"><mxGeometry x="510" y="320" width="70" height="130" as="geometry"/></mxCell><mxCell id="31NwBbD8V8PtCts3J6Gv-2" value="Legend" style="rounded=0;whiteSpace=wrap;html=1;fontSize=14;horizontal=1;verticalAlign=top;fillColor=default;" parent="31NwBbD8V8PtCts3J6Gv-1" vertex="1"><mxGeometry width="70" height="130" as="geometry"/></mxCell><mxCell id="31NwBbD8V8PtCts3J6Gv-3" value="Cons" style="ellipse;whiteSpace=wrap;html=1;fillColor=#f8cecc;strokeColor=#b85450;" parent="31NwBbD8V8PtCts3J6Gv-1" vertex="1"><mxGeometry x="10" y="30" width="40" height="20" as="geometry"/></mxCell><mxCell id="31NwBbD8V8PtCts3J6Gv-4" value="Pros" style="ellipse;whiteSpace=wrap;html=1;fillColor=#dae8fc;strokeColor=#6c8ebf;" parent="31NwBbD8V8PtCts3J6Gv-1" vertex="1"><mxGeometry x="10" y="60" width="40" height="20" as="geometry"/></mxCell><mxCell id="31NwBbD8V8PtCts3J6Gv-5" value="Neutral" style="ellipse;whiteSpace=wrap;html=1;fillColor=#f5f5f5;strokeColor=#666666;fontColor=#333333;" parent="31NwBbD8V8PtCts3J6Gv-1" vertex="1"><mxGeometry x="10" y="95" width="40" height="20" as="geometry"/></mxCell></root></mxGraphModel></diagram><diagram id="SniEkt_yqto9FZmyBPb4" name="SupplySecurity"><mxGraphModel dx="1153" dy="613" grid="1" gridSize="10" guides="1" tooltips="1" connect="1" arrows="1" fold="1" page="1" pageScale="1" pageWidth="1169" pageHeight="827" math="0" shadow="0"><root><mxCell id="0"/><mxCell id="1" parent="0"/><mxCell id="hNgEJ-faWNkruRXRoxqT-1" value="Good comfort&lt;br&gt;&amp;gt;94%" style="ellipse;whiteSpace=wrap;html=1;fillColor=#dae8fc;strokeColor=#6c8ebf;" parent="1" vertex="1"><mxGeometry x="380" y="150" width="80" height="50" as="geometry"/></mxCell><mxCell id="-21s85NW_LYBx6A5h5Zx-15" style="edgeStyle=none;rounded=0;orthogonalLoop=1;jettySize=auto;html=1;" parent="1" source="ZaT8Rdsem01kG34se4gp-1" target="ZaT8Rdsem01kG34se4gp-7" edge="1"><mxGeometry relative="1" as="geometry"/></mxCell><mxCell id="ZaT8Rdsem01kG34se4gp-1" value="Good comfort&lt;br&gt;&amp;gt;96%" style="ellipse;whiteSpace=wrap;html=1;fillColor=#dae8fc;strokeColor=#6c8ebf;" parent="1" vertex="1"><mxGeometry x="380" y="310" width="80" height="50" as="geometry"/></mxCell><mxCell id="ZaT8Rdsem01kG34se4gp-2" value="Good comfort&lt;br&gt;&amp;gt;91%" style="ellipse;whiteSpace=wrap;html=1;fillColor=#dae8fc;strokeColor=#6c8ebf;" parent="1" vertex="1"><mxGeometry x="270" y="150" width="80" height="50" as="geometry"/></mxCell><mxCell id="ZaT8Rdsem01kG34se4gp-3" value="Bad comfort&lt;br&gt;&amp;lt;91%" style="ellipse;whiteSpace=wrap;html=1;fillColor=#f8cecc;strokeColor=#b85450;" parent="1" vertex="1"><mxGeometry x="270" y="310" width="80" height="50" as="geometry"/></mxCell><mxCell id="ZaT8Rdsem01kG34se4gp-4" value="Bad comfort&lt;br&gt;&amp;lt;85%" style="ellipse;whiteSpace=wrap;html=1;fillColor=#f8cecc;strokeColor=#b85450;" parent="1" vertex="1"><mxGeometry x="170" y="388.5" width="80" height="50" as="geometry"/></mxCell><mxCell id="-21s85NW_LYBx6A5h5Zx-16" style="edgeStyle=none;rounded=0;orthogonalLoop=1;jettySize=auto;html=1;entryX=0;entryY=0.5;entryDx=0;entryDy=0;" parent="1" source="ZaT8Rdsem01kG34se4gp-5" target="ZaT8Rdsem01kG34se4gp-6" edge="1"><mxGeometry relative="1" as="geometry"/></mxCell><mxCell id="ZaT8Rdsem01kG34se4gp-5" value="Bad comfort&lt;br&gt;&amp;lt;75%" style="ellipse;whiteSpace=wrap;html=1;fillColor=#f8cecc;strokeColor=#b85450;" parent="1" vertex="1"><mxGeometry x="380" y="389" width="80" height="50" as="geometry"/></mxCell><mxCell id="ZaT8Rdsem01kG34se4gp-6" value="Bias 1" style="ellipse;whiteSpace=wrap;html=1;fillColor=#dae8fc;strokeColor=#6c8ebf;" parent="1" vertex="1"><mxGeometry x="490" y="389" width="80" height="50" as="geometry"/></mxCell><mxCell id="ZaT8Rdsem01kG34se4gp-7" value="Bias 2" style="ellipse;whiteSpace=wrap;html=1;fillColor=#f8cecc;strokeColor=#b85450;" parent="1" vertex="1"><mxGeometry x="490" y="310" width="80" height="50" as="geometry"/></mxCell><mxCell id="-21s85NW_LYBx6A5h5Zx-4" style="edgeStyle=none;rounded=0;orthogonalLoop=1;jettySize=auto;html=1;" parent="1" source="ZaT8Rdsem01kG34se4gp-9" target="ZaT8Rdsem01kG34se4gp-2" edge="1"><mxGeometry relative="1" as="geometry"/></mxCell><mxCell id="ZaT8Rdsem01kG34se4gp-9" value="High global energy" style="ellipse;whiteSpace=wrap;html=1;fillColor=#f5f5f5;strokeColor=#666666;fontColor=#333333;" parent="1" vertex="1"><mxGeometry x="170" y="150" width="80" height="50" as="geometry"/></mxCell><mxCell id="-21s85NW_LYBx6A5h5Zx-6" style="edgeStyle=none;rounded=0;orthogonalLoop=1;jettySize=auto;html=1;" parent="1" source="ZaT8Rdsem01kG34se4gp-10" target="ZaT8Rdsem01kG34se4gp-4" edge="1"><mxGeometry relative="1" as="geometry"/></mxCell><mxCell id="ZaT8Rdsem01kG34se4gp-10" value="Low global energy" style="ellipse;whiteSpace=wrap;html=1;fillColor=#f5f5f5;strokeColor=#666666;fontColor=#333333;" parent="1" vertex="1"><mxGeometry x="170" y="310" width="80" height="50" as="geometry"/></mxCell><mxCell id="-21s85NW_LYBx6A5h5Zx-5" style="edgeStyle=none;rounded=0;orthogonalLoop=1;jettySize=auto;html=1;" parent="1" source="ZaT8Rdsem01kG34se4gp-11" target="ZaT8Rdsem01kG34se4gp-9" edge="1"><mxGeometry relative="1" as="geometry"/></mxCell><mxCell id="-21s85NW_LYBx6A5h5Zx-7" style="edgeStyle=none;rounded=0;orthogonalLoop=1;jettySize=auto;html=1;" parent="1" source="ZaT8Rdsem01kG34se4gp-11" target="ZaT8Rdsem01kG34se4gp-2" edge="1"><mxGeometry relative="1" as="geometry"/></mxCell><mxCell id="-21s85NW_LYBx6A5h5Zx-8" style="edgeStyle=none;rounded=0;orthogonalLoop=1;jettySize=auto;html=1;" parent="1" source="ZaT8Rdsem01kG34se4gp-11" target="-21s85NW_LYBx6A5h5Zx-1" edge="1"><mxGeometry relative="1" as="geometry"/></mxCell><mxCell id="ZaT8Rdsem01kG34se4gp-11" value="Agent is a School" style="ellipse;whiteSpace=wrap;html=1;fillColor=#f5f5f5;strokeColor=#666666;fontColor=#333333;" parent="1" vertex="1"><mxGeometry x="170" y="230" width="80" height="50" as="geometry"/></mxCell><mxCell id="-21s85NW_LYBx6A5h5Zx-9" style="edgeStyle=none;rounded=0;orthogonalLoop=1;jettySize=auto;html=1;" parent="1" source="-21s85NW_LYBx6A5h5Zx-1" target="hNgEJ-faWNkruRXRoxqT-1" edge="1"><mxGeometry relative="1" as="geometry"/></mxCell><mxCell id="-21s85NW_LYBx6A5h5Zx-12" style="edgeStyle=none;rounded=0;orthogonalLoop=1;jettySize=auto;html=1;" parent="1" source="-21s85NW_LYBx6A5h5Zx-1" target="ZaT8Rdsem01kG34se4gp-1" edge="1"><mxGeometry relative="1" as="geometry"/></mxCell><mxCell id="-21s85NW_LYBx6A5h5Zx-1" value="Over-consume 10%" style="ellipse;whiteSpace=wrap;html=1;fillColor=#f8cecc;strokeColor=#b85450;" parent="1" vertex="1"><mxGeometry x="270" y="230" width="80" height="50" as="geometry"/></mxCell><mxCell id="-21s85NW_LYBx6A5h5Zx-10" style="edgeStyle=none;rounded=0;orthogonalLoop=1;jettySize=auto;html=1;" parent="1" source="-21s85NW_LYBx6A5h5Zx-2" target="hNgEJ-faWNkruRXRoxqT-1" edge="1"><mxGeometry relative="1" as="geometry"/></mxCell><mxCell id="-21s85NW_LYBx6A5h5Zx-13" style="edgeStyle=none;rounded=0;orthogonalLoop=1;jettySize=auto;html=1;" parent="1" source="-21s85NW_LYBx6A5h5Zx-2" target="ZaT8Rdsem01kG34se4gp-1" edge="1"><mxGeometry relative="1" as="geometry"/></mxCell><mxCell id="-21s85NW_LYBx6A5h5Zx-2" value="Over-consume 20%" style="ellipse;whiteSpace=wrap;html=1;fillColor=#f8cecc;strokeColor=#b85450;" parent="1" vertex="1"><mxGeometry x="380" y="230" width="80" height="50" as="geometry"/></mxCell><mxCell id="-21s85NW_LYBx6A5h5Zx-11" style="edgeStyle=none;rounded=0;orthogonalLoop=1;jettySize=auto;html=1;" parent="1" source="-21s85NW_LYBx6A5h5Zx-3" target="hNgEJ-faWNkruRXRoxqT-1" edge="1"><mxGeometry relative="1" as="geometry"/></mxCell><mxCell id="-21s85NW_LYBx6A5h5Zx-14" style="edgeStyle=none;rounded=0;orthogonalLoop=1;jettySize=auto;html=1;" parent="1" source="-21s85NW_LYBx6A5h5Zx-3" target="ZaT8Rdsem01kG34se4gp-1" edge="1"><mxGeometry relative="1" as="geometry"/></mxCell><mxCell id="-21s85NW_LYBx6A5h5Zx-3" value="Over-consume 30%" style="ellipse;whiteSpace=wrap;html=1;fillColor=#f8cecc;strokeColor=#b85450;" parent="1" vertex="1"><mxGeometry x="490" y="230" width="80" height="50" as="geometry"/></mxCell><mxCell id="HdXmfXR6QJKzVCFlpHo8-1" value="" style="group" parent="1" vertex="1" connectable="0"><mxGeometry x="585" y="240" width="70" height="130" as="geometry"/></mxCell><mxCell id="HdXmfXR6QJKzVCFlpHo8-2" value="Legend" style="rounded=0;whiteSpace=wrap;html=1;fontSize=14;horizontal=1;verticalAlign=top;fillColor=default;" parent="HdXmfXR6QJKzVCFlpHo8-1" vertex="1"><mxGeometry width="70" height="130" as="geometry"/></mxCell><mxCell id="HdXmfXR6QJKzVCFlpHo8-3" value="Cons" style="ellipse;whiteSpace=wrap;html=1;fillColor=#f8cecc;strokeColor=#b85450;" parent="HdXmfXR6QJKzVCFlpHo8-1" vertex="1"><mxGeometry x="10" y="30" width="40" height="20" as="geometry"/></mxCell><mxCell id="HdXmfXR6QJKzVCFlpHo8-4" value="Pros" style="ellipse;whiteSpace=wrap;html=1;fillColor=#dae8fc;strokeColor=#6c8ebf;" parent="HdXmfXR6QJKzVCFlpHo8-1" vertex="1"><mxGeometry x="10" y="60" width="40" height="20" as="geometry"/></mxCell><mxCell id="HdXmfXR6QJKzVCFlpHo8-5" value="Neutral" style="ellipse;whiteSpace=wrap;html=1;fillColor=#f5f5f5;strokeColor=#666666;fontColor=#333333;" parent="HdXmfXR6QJKzVCFlpHo8-1" vertex="1"><mxGeometry x="10" y="95" width="40" height="20" as="geometry"/></mxCell></root></mxGraphModel></diagram></mxfile>